{"glyphs":{"0":{"ha":857,"x_min":0,"x_max":0,"o":"m 428 -12 b 797 486 654 -12 797 176 b 428 985 797 796 654 985 b 60 486 201 985 60 796 b 428 -12 60 176 201 -12 z m 428 92 b 179 486 269 92 179 235 b 428 881 179 738 269 881 b 678 486 586 881 678 738 b 428 92 678 235 586 92 z "},"1":{"ha":501,"x_min":0,"x_max":0,"o":"m 388 0 l 388 972 l 286 972 b 36 813 218 888 122 832 l 36 708 b 268 832 143 733 222 774 l 268 0 z "},"2":{"ha":772,"x_min":0,"x_max":0,"o":"m 697 0 l 697 103 l 204 103 l 478 351 b 694 693 621 471 694 574 b 375 983 694 865 560 983 b 47 638 165 983 32 843 l 165 638 b 375 881 156 783 238 881 b 575 693 490 881 575 806 b 410 433 575 608 518 532 l 38 96 l 38 0 z "},"3":{"ha":788,"x_min":0,"x_max":0,"o":"m 432 581 b 406 579 424 581 414 581 l 706 876 l 706 972 l 63 972 l 63 869 l 558 869 l 271 569 l 271 469 b 399 500 307 488 349 500 b 610 300 524 500 610 425 b 379 92 610 178 514 92 b 146 290 249 92 154 168 l 33 290 b 379 -11 44 99 189 -11 b 728 297 585 -11 728 115 b 432 581 728 474 615 581 z "},"4":{"ha":844,"x_min":0,"x_max":0,"o":"m 663 0 l 663 246 l 803 246 l 803 349 l 663 349 l 663 972 l 525 972 l 29 340 l 29 246 l 543 246 l 543 0 z m 543 836 l 543 349 l 153 349 z "},"5":{"ha":792,"x_min":0,"x_max":0,"o":"m 415 649 b 188 547 331 649 246 615 l 238 869 l 664 869 l 664 972 l 150 972 l 75 438 l 172 438 b 388 554 213 507 289 554 b 615 321 521 554 615 458 b 390 92 615 188 522 92 b 156 275 267 92 172 164 l 47 275 b 394 -11 63 103 206 -11 b 733 321 594 -11 733 125 b 415 649 733 513 601 649 z "},"6":{"ha":838,"x_min":0,"x_max":0,"o":"m 443 642 b 168 446 317 642 207 576 b 461 883 167 672 250 883 b 664 746 564 883 646 832 l 776 746 b 460 983 757 897 636 983 b 60 431 213 983 60 768 b 431 -11 60 171 189 -11 b 776 317 631 -11 776 126 b 443 642 776 506 636 642 z m 660 319 b 429 88 660 185 564 88 b 197 318 294 88 197 185 b 429 549 197 453 294 549 b 660 319 564 549 661 454 z "},"7":{"ha":775,"x_min":0,"x_max":0,"o":"m 328 0 b 725 869 340 285 490 610 l 725 972 l 46 972 l 46 869 l 599 869 b 210 0 376 636 231 311 z "},"8":{"ha":804,"x_min":0,"x_max":0,"o":"m 404 -11 b 746 267 596 -11 746 103 b 540 515 746 386 672 489 b 724 729 656 542 724 638 b 404 983 724 874 592 983 b 82 729 214 983 82 874 b 268 515 82 639 153 544 b 60 267 133 488 60 386 b 404 -11 60 103 211 -11 z m 404 561 b 196 725 285 561 199 628 b 404 890 194 822 281 890 b 608 725 526 890 610 822 b 404 561 607 628 522 561 z m 404 86 b 175 274 269 86 175 164 b 404 461 175 385 269 461 b 631 274 538 461 631 385 b 404 86 631 164 538 86 z "},"9":{"ha":838,"x_min":0,"x_max":0,"o":"m 407 983 b 61 656 207 983 61 846 b 394 331 61 467 201 331 b 669 526 521 331 631 396 b 376 89 671 300 588 89 b 174 226 274 89 192 140 l 61 226 b 378 -11 81 75 201 -11 b 778 542 625 -11 778 204 b 407 983 778 801 649 983 z m 408 424 b 178 653 274 424 176 518 b 408 885 178 788 274 885 b 640 654 543 885 640 788 b 408 424 640 519 543 424 z "},"\r":{"ha":335,"x_min":0,"x_max":0,"o":""}," ":{"ha":335,"x_min":0,"x_max":0,"o":""},"A":{"ha":939,"x_min":0,"x_max":0,"o":"m 926 0 l 540 972 l 401 972 l 13 0 l 136 0 l 238 254 l 697 254 l 797 0 z m 404 671 b 465 836 440 763 465 836 l 471 836 b 532 671 471 836 496 763 l 656 357 l 279 357 z "},"B":{"ha":867,"x_min":0,"x_max":0,"o":"m 488 0 b 806 279 671 0 806 114 b 594 524 806 403 713 503 b 761 733 686 546 761 631 b 486 972 761 875 646 972 l 114 972 l 114 0 z m 233 869 l 471 869 b 646 718 569 869 646 807 b 471 564 646 628 569 564 l 233 564 z m 233 468 l 478 468 b 686 286 597 468 686 393 b 478 103 686 179 597 103 l 233 103 z "},"C":{"ha":993,"x_min":0,"x_max":0,"o":"m 531 -12 b 939 306 749 -12 913 104 l 817 306 b 529 92 799 182 683 92 b 179 486 322 92 179 242 b 529 881 179 731 322 881 b 813 672 679 881 792 797 l 935 672 b 531 985 911 864 753 985 b 60 486 257 985 60 794 b 531 -12 60 178 254 -12 z "},"D":{"ha":935,"x_min":0,"x_max":0,"o":"m 397 0 b 878 486 665 0 878 182 b 397 972 878 790 665 972 l 101 972 l 101 0 z m 221 869 l 386 869 b 758 486 596 869 758 728 b 386 103 758 244 596 103 l 221 103 z "},"E":{"ha":825,"x_min":0,"x_max":0,"o":"m 738 0 l 738 103 l 233 103 l 233 454 l 644 454 l 644 557 l 233 557 l 233 869 l 735 869 l 735 972 l 114 972 l 114 0 z "},"F":{"ha":801,"x_min":0,"x_max":0,"o":"m 233 0 l 233 454 l 644 454 l 644 557 l 233 557 l 233 869 l 735 869 l 735 972 l 114 972 l 114 0 z "},"G":{"ha":1031,"x_min":0,"x_max":0,"o":"m 526 -11 b 836 194 668 -11 790 54 l 836 0 l 944 0 l 944 496 l 488 496 l 488 399 l 836 399 b 532 92 833 219 715 92 b 179 486 319 92 179 246 b 528 881 179 726 319 881 b 814 672 681 881 792 797 l 935 672 b 535 985 911 861 751 985 b 60 486 261 985 60 797 b 526 -11 60 175 257 -11 z "},"H":{"ha":990,"x_min":0,"x_max":0,"o":"m 758 567 l 233 567 l 233 972 l 114 972 l 114 0 l 233 0 l 233 463 l 758 463 l 758 0 l 878 0 l 878 972 l 758 972 z "},"I":{"ha":346,"x_min":0,"x_max":0,"o":"m 233 0 l 233 972 l 114 972 l 114 0 z "},"J":{"ha":486,"x_min":0,"x_max":0,"o":"m 40 1 b 142 -11 65 -6 106 -11 b 372 246 281 -11 372 83 l 372 972 l 253 972 l 253 250 b 118 94 253 156 201 94 b 40 107 90 94 60 99 z "},"K":{"ha":897,"x_min":0,"x_max":0,"o":"m 885 0 l 460 590 l 842 972 l 683 972 l 233 522 l 233 972 l 114 972 l 115 0 l 235 0 l 235 364 l 379 510 l 739 0 z "},"L":{"ha":797,"x_min":0,"x_max":0,"o":"m 710 0 l 710 103 l 233 103 l 233 972 l 114 972 l 114 0 z "},"M":{"ha":1247,"x_min":0,"x_max":0,"o":"m 233 0 l 233 631 b 228 821 233 729 228 821 l 232 822 b 301 644 232 822 263 736 l 572 0 l 678 0 l 947 644 b 1017 824 986 736 1017 824 l 1021 822 b 1015 632 1021 822 1015 731 l 1015 0 l 1135 0 l 1135 972 l 967 972 l 628 164 l 288 972 l 114 972 l 114 0 z "},"N":{"ha":967,"x_min":0,"x_max":0,"o":"m 221 0 l 221 638 b 214 828 221 736 214 828 l 218 829 b 311 663 218 829 260 747 l 710 0 l 865 0 l 865 972 l 746 972 l 746 335 b 753 144 746 236 753 144 l 749 143 b 657 310 749 143 707 225 l 258 972 l 101 972 l 101 0 z "},"O":{"ha":1075,"x_min":0,"x_max":0,"o":"m 536 -12 b 1015 486 811 -12 1015 197 b 536 985 1015 775 811 985 b 60 486 261 985 60 775 b 536 -12 60 197 261 -12 z m 536 92 b 179 486 329 92 179 257 b 536 881 179 715 329 881 b 896 486 746 881 896 714 b 536 92 896 258 746 92 z "},"P":{"ha":817,"x_min":0,"x_max":0,"o":"m 221 0 l 221 414 l 476 414 b 781 693 657 414 781 528 b 476 972 781 858 657 972 l 101 972 l 101 0 z m 221 869 l 465 869 b 663 693 582 869 663 797 b 465 518 663 589 582 518 l 221 518 z "},"Q":{"ha":1121,"x_min":0,"x_max":0,"o":"m 907 103 b 835 97 886 103 861 100 b 1015 486 944 188 1015 328 b 536 985 1015 775 811 985 b 60 486 261 985 60 775 b 536 -12 60 197 261 -12 b 642 0 572 -12 608 -8 l 1083 0 l 1083 103 z m 179 486 b 536 881 179 715 329 881 b 896 486 746 881 896 714 b 536 92 896 258 746 92 b 179 486 329 92 179 257 z "},"R":{"ha":860,"x_min":0,"x_max":0,"o":"m 549 451 b 753 707 672 485 753 585 b 460 972 753 864 632 972 l 101 972 l 101 0 l 221 0 l 221 440 l 422 440 l 703 0 l 842 0 z m 442 869 b 633 707 556 869 633 803 b 442 543 633 610 556 543 l 221 543 l 221 869 z "},"S":{"ha":817,"x_min":0,"x_max":0,"o":"m 418 -12 b 764 265 625 -12 764 97 b 203 732 764 644 203 499 b 413 881 203 825 279 881 b 629 721 525 881 607 813 l 746 721 b 413 985 718 889 579 985 b 83 728 219 985 83 883 b 644 258 83 385 644 526 b 418 92 644 156 556 92 b 161 307 282 92 182 181 l 44 307 b 418 -12 69 107 228 -12 z "},"T":{"ha":790,"x_min":0,"x_max":0,"o":"m 26 972 l 26 869 l 336 869 l 336 0 l 456 0 l 456 869 l 765 869 l 765 972 z "},"U":{"ha":974,"x_min":0,"x_max":0,"o":"m 488 -11 b 861 339 708 -11 861 132 l 861 972 l 742 972 l 742 339 b 488 92 742 194 638 92 b 233 339 338 92 233 194 l 233 972 l 114 972 l 114 339 b 488 -11 114 132 267 -11 z "},"V":{"ha":928,"x_min":0,"x_max":0,"o":"m 533 0 l 904 972 l 781 972 l 528 301 b 468 135 493 210 468 135 l 464 135 b 404 301 464 135 439 210 l 151 972 l 24 972 l 393 0 z "},"W":{"ha":1418,"x_min":0,"x_max":0,"o":"m 465 0 l 660 654 b 707 824 688 747 707 824 l 711 824 b 758 654 711 824 731 749 l 953 0 l 1093 0 l 1393 972 l 1272 972 l 1075 306 b 1029 135 1047 211 1029 135 l 1024 135 b 978 306 1024 135 1006 211 l 782 972 l 639 972 l 446 306 b 400 135 419 213 400 135 l 396 135 b 349 306 396 135 376 211 l 150 972 l 24 972 l 325 0 z "},"X":{"ha":839,"x_min":0,"x_max":0,"o":"m 486 521 l 774 972 l 640 972 l 419 625 l 199 972 l 58 972 l 350 515 l 21 0 l 154 0 l 417 411 l 678 0 l 818 0 z "},"Y":{"ha":836,"x_min":0,"x_max":0,"o":"m 696 972 l 421 524 l 147 972 l 7 972 l 358 404 l 358 0 l 478 0 l 478 407 l 829 972 z "},"Z":{"ha":819,"x_min":0,"x_max":0,"o":"m 765 0 l 765 103 l 174 103 l 764 876 l 764 972 l 67 972 l 67 869 l 625 869 l 35 96 l 35 0 z "},"a":{"ha":807,"x_min":0,"x_max":0,"o":"m 392 782 b 75 513 225 782 89 679 l 182 513 b 392 694 190 617 272 694 b 596 510 508 694 596 618 l 596 472 l 444 456 b 74 200 201 429 74 363 b 326 -12 74 78 178 -12 b 596 147 451 -12 556 50 l 596 0 l 706 0 l 706 496 b 392 782 706 674 574 782 z m 349 82 b 182 207 249 82 182 132 b 446 369 182 314 274 351 l 596 386 l 596 363 b 349 82 596 193 503 82 z "},"b":{"ha":933,"x_min":0,"x_max":0,"o":"m 494 781 b 214 624 375 781 265 717 l 214 983 l 101 983 l 101 0 l 214 0 l 214 146 b 493 -11 265 53 375 -11 b 868 385 708 -11 868 151 b 494 781 868 618 708 781 z m 485 88 b 214 385 328 88 214 210 b 485 682 214 560 328 682 b 754 385 642 682 754 558 b 485 88 754 211 642 88 z "},"c":{"ha":844,"x_min":0,"x_max":0,"o":"m 440 -11 b 789 254 628 -11 767 94 l 674 254 b 440 88 657 158 568 88 b 179 385 293 88 179 210 b 440 682 179 560 292 682 b 668 521 560 682 649 614 l 781 521 b 440 781 753 683 617 781 b 65 385 225 781 65 617 b 440 -11 65 153 225 -11 z "},"d":{"ha":933,"x_min":0,"x_max":0,"o":"m 719 624 b 439 781 668 717 558 781 b 65 385 225 781 65 618 b 440 -11 65 151 225 -11 b 719 146 558 -11 668 53 l 719 0 l 832 0 l 832 983 l 719 983 z m 449 88 b 179 385 292 88 179 211 b 449 682 179 558 292 682 b 719 385 606 682 719 560 b 449 88 719 210 606 88 z "},"e":{"ha":853,"x_min":0,"x_max":0,"o":"m 788 438 b 435 782 788 615 664 782 b 65 385 201 782 65 600 b 436 -12 65 169 206 -12 b 782 244 613 -12 751 71 l 668 244 b 439 83 644 143 560 83 b 175 376 283 83 178 200 l 783 376 b 788 438 783 376 788 407 z m 182 463 b 435 694 207 606 303 694 b 669 463 578 694 668 596 z "},"f":{"ha":550,"x_min":0,"x_max":0,"o":"m 418 935 b 504 917 446 935 478 928 l 504 1015 b 404 1033 481 1026 442 1033 b 188 801 278 1033 188 956 l 188 769 l 56 769 l 56 676 l 188 676 l 188 0 l 300 0 l 300 676 l 503 676 l 503 769 l 300 769 l 300 793 b 418 935 300 888 349 935 z "},"g":{"ha":906,"x_min":0,"x_max":0,"o":"m 697 625 b 426 782 651 721 544 782 b 67 411 214 782 67 633 b 428 43 67 192 214 43 b 697 200 549 43 654 104 l 697 78 b 440 -169 697 -79 581 -169 b 197 -21 314 -169 211 -110 l 88 -21 b 440 -264 108 -174 254 -264 b 810 78 646 -264 810 -137 l 810 769 l 697 769 z m 442 139 b 179 411 288 139 179 251 b 442 688 179 574 288 688 b 704 411 596 688 704 574 b 442 139 704 251 596 139 z "},"h":{"ha":878,"x_min":0,"x_max":0,"o":"m 489 781 b 214 599 372 781 265 710 l 214 983 l 101 983 l 101 0 l 214 0 l 214 329 b 464 679 214 529 321 679 b 664 489 585 679 664 604 l 664 0 l 776 0 l 776 513 b 489 781 776 675 665 781 z "},"i":{"ha":315,"x_min":0,"x_max":0,"o":"m 158 896 b 236 972 201 896 236 928 b 158 1047 236 1014 201 1047 b 79 972 113 1047 79 1014 b 158 896 79 928 113 896 z m 214 0 l 214 769 l 101 769 l 101 0 z "},"j":{"ha":315,"x_min":0,"x_max":0,"o":"m 156 896 b 233 972 199 896 233 928 b 156 1047 233 1014 199 1047 b 76 972 110 1047 76 1014 b 156 896 76 928 110 896 z m 13 -264 b 214 -62 131 -267 214 -201 l 214 769 l 101 769 l 101 -50 b 7 -167 101 -137 64 -167 l -17 -167 l -17 -262 z "},"k":{"ha":797,"x_min":0,"x_max":0,"o":"m 776 0 l 417 475 l 749 769 l 596 769 l 214 435 l 214 983 l 101 983 l 101 0 l 214 0 l 214 294 l 332 400 l 639 0 z "},"l":{"ha":315,"x_min":0,"x_max":0,"o":"m 214 0 l 214 983 l 101 983 l 101 0 z "},"m":{"ha":1357,"x_min":0,"x_max":0,"o":"m 992 781 b 719 574 875 781 769 700 b 471 781 707 700 606 781 b 214 581 349 781 247 694 l 214 769 l 101 769 l 101 0 l 214 0 l 214 329 b 440 679 214 542 304 679 b 622 489 550 679 622 604 l 622 0 l 735 0 l 735 329 b 961 679 735 542 826 679 b 1144 489 1071 679 1144 604 l 1144 0 l 1257 0 l 1257 513 b 992 781 1257 675 1151 781 z "},"n":{"ha":878,"x_min":0,"x_max":0,"o":"m 489 781 b 214 599 372 781 265 710 l 214 769 l 101 769 l 101 0 l 214 0 l 214 329 b 464 679 214 529 321 679 b 664 489 585 679 664 604 l 664 0 l 776 0 l 776 513 b 489 781 776 675 665 781 z "},"o":{"ha":899,"x_min":0,"x_max":0,"o":"m 449 -11 b 833 385 672 -11 833 153 b 449 781 833 617 672 781 b 65 385 225 781 65 617 b 449 -11 65 153 225 -11 z m 449 88 b 179 385 292 88 179 210 b 449 682 179 560 292 682 b 719 385 606 682 719 560 b 449 88 719 210 606 88 z "},"p":{"ha":933,"x_min":0,"x_max":0,"o":"m 493 781 b 214 624 375 781 265 717 l 214 769 l 101 769 l 101 -211 l 214 -211 l 214 146 b 494 -11 265 53 375 -11 b 868 385 708 -11 868 151 b 493 781 868 618 708 781 z m 485 88 b 214 385 328 88 214 210 b 485 682 214 560 328 682 b 754 385 642 682 754 558 b 485 88 754 211 642 88 z "},"q":{"ha":933,"x_min":0,"x_max":0,"o":"m 719 624 b 440 781 668 717 558 781 b 65 385 225 781 65 618 b 439 -11 65 151 225 -11 b 719 146 558 -11 668 53 l 719 -211 l 832 -211 l 832 769 l 719 769 z m 449 88 b 179 385 292 88 179 211 b 449 682 179 558 292 682 b 719 385 606 682 719 560 b 449 88 719 210 606 88 z "},"r":{"ha":590,"x_min":0,"x_max":0,"o":"m 547 765 b 456 782 526 776 488 782 b 214 556 343 782 246 697 l 214 769 l 101 769 l 101 0 l 214 0 l 214 296 b 444 676 214 540 310 676 b 547 657 475 676 510 669 z "},"s":{"ha":694,"x_min":0,"x_max":0,"o":"m 354 -12 b 632 211 519 -12 632 78 b 174 582 632 543 174 390 b 335 697 174 651 238 697 b 504 554 422 697 497 642 l 614 554 b 333 782 601 696 488 782 b 69 579 178 782 69 700 b 528 210 69 290 528 431 b 354 76 528 129 460 76 b 158 244 244 76 163 138 l 51 244 b 354 -12 58 82 185 -12 z "},"t":{"ha":522,"x_min":0,"x_max":0,"o":"m 469 769 l 267 769 l 267 929 l 154 929 l 154 769 l 22 769 l 22 676 l 154 676 l 154 219 b 371 -12 154 67 244 -12 b 469 7 408 -12 447 -6 l 469 104 b 382 88 447 93 414 88 b 267 228 313 88 267 135 l 267 676 l 469 676 z "},"u":{"ha":878,"x_min":0,"x_max":0,"o":"m 664 440 b 414 90 664 240 557 90 b 214 281 293 90 214 165 l 214 769 l 101 769 l 101 257 b 389 -11 101 94 213 -11 b 664 171 506 -11 613 60 l 664 0 l 776 0 l 776 769 l 664 769 z "},"v":{"ha":761,"x_min":0,"x_max":0,"o":"m 439 0 l 739 769 l 621 769 l 444 303 b 385 136 410 211 385 136 l 381 136 b 321 303 381 136 357 210 l 144 769 l 22 769 l 322 0 z "},"w":{"ha":1229,"x_min":0,"x_max":0,"o":"m 936 306 b 883 136 906 213 883 136 l 879 136 b 826 306 879 136 858 211 l 672 769 l 561 769 l 407 306 b 354 136 376 213 354 136 l 350 136 b 297 306 350 136 329 211 l 143 769 l 22 769 l 293 0 l 407 0 l 560 451 b 613 619 592 544 613 619 l 618 619 b 671 451 618 619 639 544 l 824 0 l 936 0 l 1207 769 l 1090 769 z "},"x":{"ha":733,"x_min":0,"x_max":0,"o":"m 433 403 l 681 769 l 549 769 l 367 500 l 185 769 l 49 769 l 299 400 l 28 0 l 160 0 l 365 303 l 569 0 l 706 0 z "},"y":{"ha":758,"x_min":0,"x_max":0,"o":"m 442 319 b 382 153 407 228 382 153 l 378 153 b 317 319 378 153 353 226 l 143 769 l 22 769 l 321 14 l 231 -211 l 347 -211 l 736 769 l 617 769 z "},"z":{"ha":746,"x_min":0,"x_max":0,"o":"m 689 0 l 689 93 l 194 93 l 688 682 l 688 769 l 79 769 l 79 676 l 546 676 l 53 88 l 53 0 z "}," ":{"ha":335,"x_min":0,"x_max":0,"o":""},".":{"ha":290,"x_min":0,"x_max":0,"o":"m 146 -6 b 221 69 189 -6 221 25 b 146 143 221 111 189 143 b 69 69 101 143 69 111 b 146 -6 69 25 101 -6 z "},",":{"ha":282,"x_min":0,"x_max":0,"o":"m 106 -151 l 193 6 b 213 68 204 25 213 46 b 136 143 213 111 181 143 b 60 67 90 143 60 113 b 111 -1 60 31 79 6 l 53 -151 z "},"-":{"ha":514,"x_min":0,"x_max":0,"o":"m 458 367 l 458 461 l 56 461 l 56 367 z "}}}
